<mxfile host="Electron" agent="Mozilla/5.0 (Windows NT 10.0; Win64; x64) AppleWebKit/537.36 (KHTML, like Gecko) draw.io/24.7.8 Chrome/128.0.6613.36 Electron/32.0.1 Safari/537.36" version="24.7.8">
  <diagram name="Страница — 1" id="zCzaa2rRlrUxqRf3jUUv">
    <mxGraphModel dx="1098" dy="988" grid="1" gridSize="10" guides="1" tooltips="1" connect="1" arrows="1" fold="1" page="1" pageScale="1" pageWidth="827" pageHeight="1169" math="0" shadow="0">
      <root>
        <mxCell id="0" />
        <mxCell id="1" parent="0" />
        <mxCell id="hewiEJlQBubz65rrYfK1-4" style="edgeStyle=orthogonalEdgeStyle;rounded=0;orthogonalLoop=1;jettySize=auto;html=1;entryX=0;entryY=0.5;entryDx=0;entryDy=0;" edge="1" parent="1" source="hewiEJlQBubz65rrYfK1-1" target="hewiEJlQBubz65rrYfK1-3">
          <mxGeometry relative="1" as="geometry" />
        </mxCell>
        <mxCell id="hewiEJlQBubz65rrYfK1-8" style="edgeStyle=orthogonalEdgeStyle;rounded=0;orthogonalLoop=1;jettySize=auto;html=1;entryX=0;entryY=0.5;entryDx=0;entryDy=0;" edge="1" parent="1" source="hewiEJlQBubz65rrYfK1-1" target="hewiEJlQBubz65rrYfK1-6">
          <mxGeometry relative="1" as="geometry" />
        </mxCell>
        <mxCell id="hewiEJlQBubz65rrYfK1-11" style="edgeStyle=orthogonalEdgeStyle;rounded=0;orthogonalLoop=1;jettySize=auto;html=1;entryX=0;entryY=0.5;entryDx=0;entryDy=0;" edge="1" parent="1" source="hewiEJlQBubz65rrYfK1-1" target="hewiEJlQBubz65rrYfK1-9">
          <mxGeometry relative="1" as="geometry">
            <Array as="points">
              <mxPoint x="220" y="305" />
              <mxPoint x="220" y="455" />
            </Array>
          </mxGeometry>
        </mxCell>
        <mxCell id="hewiEJlQBubz65rrYfK1-1" value="Actor" style="shape=umlActor;verticalLabelPosition=bottom;verticalAlign=top;html=1;outlineConnect=0;" vertex="1" parent="1">
          <mxGeometry x="150" y="250" width="60" height="110" as="geometry" />
        </mxCell>
        <mxCell id="hewiEJlQBubz65rrYfK1-3" value="" style="ellipse;whiteSpace=wrap;html=1;" vertex="1" parent="1">
          <mxGeometry x="260" y="180" width="120" height="80" as="geometry" />
        </mxCell>
        <mxCell id="hewiEJlQBubz65rrYfK1-5" value="Ввести параметры солнечной панели" style="text;html=1;align=center;verticalAlign=middle;whiteSpace=wrap;rounded=0;" vertex="1" parent="1">
          <mxGeometry x="290" y="205" width="60" height="30" as="geometry" />
        </mxCell>
        <mxCell id="hewiEJlQBubz65rrYfK1-6" value="" style="ellipse;whiteSpace=wrap;html=1;" vertex="1" parent="1">
          <mxGeometry x="260" y="280" width="120" height="100" as="geometry" />
        </mxCell>
        <mxCell id="hewiEJlQBubz65rrYfK1-7" value="Задать положение солнечный панелей на карте" style="text;html=1;align=center;verticalAlign=middle;whiteSpace=wrap;rounded=0;" vertex="1" parent="1">
          <mxGeometry x="290" y="315" width="60" height="30" as="geometry" />
        </mxCell>
        <mxCell id="hewiEJlQBubz65rrYfK1-9" value="" style="ellipse;whiteSpace=wrap;html=1;" vertex="1" parent="1">
          <mxGeometry x="245" y="395" width="150" height="120" as="geometry" />
        </mxCell>
        <mxCell id="hewiEJlQBubz65rrYfK1-10" value="Получить график выроботки энергии за неделю/месяц/год" style="text;html=1;align=center;verticalAlign=middle;whiteSpace=wrap;rounded=0;" vertex="1" parent="1">
          <mxGeometry x="290" y="440" width="60" height="30" as="geometry" />
        </mxCell>
      </root>
    </mxGraphModel>
  </diagram>
</mxfile>
